<svg id="ff7160cd-2b91-4f90-9b3b-0974e9a8e598" data-name="ad555b9a-45e5-421f-95c2-b4159551c7d2"
    xmlns="http://www.w3.org/2000/svg" width="260" height="36" viewBox="0 0 260 36">
    <rect x="117" y="11.8" width="3" height="20.8" style="fill: #000"/>
    <polygon points="108.2 6.4 108.2 9.1 115.2 9.1 117 9.1 120 9.1 122 9.1 128.9 9.1 128.9 6.4 108.2 6.4" style="fill: #000"/>
    <polygon points="162.6 29.9 162.6 27.7 162.6 6.4 159.7 6.4 159.7 32.7 162.6 32.7 162.6 29.9" style="fill: #000"/>
    <rect x="165.4" y="29.9" width="12.1" height="2.8" style="fill: #000"/>
    <polygon points="142.5 6.2 139.7 6.2 127.7 32.7 130.7 32.7 133.9 25.7 135 23.1 141 9.6 147 23.1 138 23.1 136.9 25.7 148.2 25.7 151.3 32.7 154.5 32.7 142.5 6.2" style="fill: #000"/>
    <polygon points="19.2 22.7 19.2 22.7 18.9 21.9 19.2 22.7" style="fill: #000"/>
    <path d="M14.1,11.5a7.1,7.1,0,0,0-1-1.4A4.2,4.2,0,0,0,9,9.1a4,4,0,0,0-2.7,3.4,4,4,0,0,0,1.4,3.7l11.6,7.9Z" style="fill: #000"/>
    <path d="M21.4,7a4.1,4.1,0,0,0-2.8-2.9,4,4,0,0,0-4.1,1.3,4.4,4.4,0,0,0-.7,4.3l5.1,12.2.3.8,2.3-14A3.2,3.2,0,0,0,21.4,7Z" style="fill: #000"/>
    <path d="M29.8,9.7A4.7,4.7,0,0,0,30.1,8a4.2,4.2,0,0,0-4.2-4,3.6,3.6,0,0,0-2,.6,3.7,3.7,0,0,0-1.8,3.7h1.5l.3.2-.8.5a1.5,1.5,0,0,0-.7,1.5L24,21.1l.3,1.4Z" style="fill: #000"/>
    <path d="M24.2,24.1l11.1-7.4a5,5,0,0,0,1.4-1.5,3.9,3.9,0,0,0,0-4.4,4.2,4.2,0,0,0-3.5-1.9,4,4,0,0,0-3.5,2.2l-1.8,4.1Z" style="fill: #000"/>
    <path d="M35.9,17.3a4.4,4.4,0,0,0-1.6.6L23.1,25.4H37a3.8,3.8,0,0,0,3.2-2.2,4.4,4.4,0,0,0-.4-4.4A3.9,3.9,0,0,0,35.9,17.3Z" style="fill: #000"/>
    <path d="M7.6,17.3a4.1,4.1,0,0,0-3.9,1.5,4.4,4.4,0,0,0-.4,4.4,3.8,3.8,0,0,0,3.2,2.2H20.3L9.2,17.9A4.4,4.4,0,0,0,7.6,17.3Z" style="fill: #000"/>
    <path d="M9,28.4c-.1-.7-.7-.8-1.3-.9a2.1,2.1,0,0,0-2.4,1.6v.4c0,1.1.3,2.1,2.3,2.1.4,0,1.4-.4,1.4-1.1h2.9c-.1,1.9-3.2,2.3-4.6,2.3s-5.2-.5-5.1-3.3,2-3.3,5.7-3.3c2.1.1,4.1.7,4.1,2.2Z" style="fill: #000"/>
    <path d="M38.4,28.4c-.2-.7-.8-.8-1.4-.9a2.1,2.1,0,0,0-2.4,1.6v.4c0,1.1.3,2.1,2.3,2.1.4,0,1.4-.4,1.4-1.1h3c-.2,1.9-3.3,2.3-4.7,2.3s-5.2-.5-5.1-3.3,2-3.3,5.7-3.3c2.1.1,4.1.7,4.1,2.2Z" style="fill: #000"/>
    <path d="M12.5,26.4h3.8l3.3,4.5h0V26.4H22v6.3H18.4L15,28.1h0v4.6H12.5Z" style="fill: #000"/>
    <path d="M22.8,26.4h4.6c2.2,0,3.5.6,3.5,1.5s-.5,1.3-1.8,1.5h0c1.5.1,2,1,2,1.5s-1.2,1.8-3.7,1.8H22.8Zm2.6,2.4h.8c1.2,0,1.8-.1,1.8-.6s-.5-.7-1.6-.7h-1Zm0,2.6h.8c1.4,0,1.9-.2,1.9-.7s-.6-.7-1.7-.7h-1Z" style="fill: #000"/>
    <polygon points="97.3 6.2 94.6 6.2 82.6 32.7 85.6 32.7 88.7 25.7 89.9 23.1 95.9 9.6 101.9 23.1 92.9 23.1 91.8 25.7 103.1 25.7 106.1 32.7 109.3 32.7 97.3 6.2" style="fill: #000"/>
    <path d="M69.1,33.1c-7.6,0-13.2-5.9-13.2-13.5S61.5,5.9,69.2,5.9a13.7,13.7,0,0,1,10.3,4.2l-2.1,2.2c-2.2-2.1-4.7-3.7-8.2-3.7C63.3,8.6,59,13.4,59,19.5s4.4,10.9,10.2,10.9c3.6,0,6-1.4,8.5-3.8l1.9,1.9A13.7,13.7,0,0,1,69.1,33.1Z" style="fill: #000"/>
    <rect x="232.6" y="11.8" width="3" height="20.8" style="fill: #000"/>
    <polygon points="223.8 6.4 223.8 9.1 231.4 9.1 232.6 9.1 235.6 9.1 238.2 9.1 244.5 9.1 244.5 6.4 223.8 6.4" style="fill: #000"/>
    <polygon points="182.6 14 177.5 6.4 173.8 6.4 184.8 22.3 184.8 32.7 187.8 32.7 187.8 22.2 187.8 21.7 182.6 14" style="fill: #000"/>
    <polygon points="189.5 19.8 198.7 6.4 195.3 6.4 187.8 17.3 189.5 19.8" style="fill: #000"/>
    <path d="M211.6,18.1c5.9,1.3,8.6,3.4,8.6,7.5s-3.8,7.5-9,7.5a15.5,15.5,0,0,1-10.8-4.3l1.9-2.1a12.6,12.6,0,0,0,9,3.7c3.5,0,5.9-1.9,5.9-4.5s-1.3-3.9-6.9-5.1-8.8-3.2-8.8-7.6S205.1,6,210.1,6a13.7,13.7,0,0,1,9.3,3.2l-1.7,2.3a11.8,11.8,0,0,0-7.6-2.9c-3.5,0-5.6,1.9-5.6,4.3S205.8,16.8,211.6,18.1Z" style="fill: #000"/>
    <path d="M251.1,9.1h-.3V6.6h-1V6.4H252v.2h-.9Z" style="fill: #000"/>
    <path d="M253.9,8.3h0l-1-1.4V9.1h-.3V6.4h.3l1,1.5,1-1.5h.3V9.1h-.3V6.9Z" style="fill: #000"/>
</svg>
