<svg xmlns="http://www.w3.org/2000/svg" width="309.384" height="65.551" viewBox="0 0 309.384 65.551">
  <path id="Path_67980" data-name="Path 67980" d="M159.607,466.567v26.119H148.166V470.179c0-5.42-2.56-8.2-6.924-8.2s-7.152,2.784-7.152,8.2v22.507H122.649V452.341h9.006l2.435,5.719c2.634-3.385,6.021-6.474,11.819-6.474,8.656,0,13.7,5.723,13.7,14.982M75.789,439.738,53.437,492.686H68.952L91.3,439.738Zm22.5,11.96-8.031,19.733h16.423ZM93.9,480.555l5.131,12.131H115.69l-5.131-12.131ZM199.244,456.4c3.012,3.012,4.366,7.453,4.366,12.873v23.41h-9.219l-1.847-4.366c-2.784,3.088-6.625,5.119-12.194,5.119-7.6,0-13.85-4.366-13.85-12.346v-.149c0-8.807,6.7-12.873,16.258-12.873a28.65,28.65,0,0,1,9.861,1.655v-.676c0-4.742-2.935-7.378-8.656-7.378a28.886,28.886,0,0,0-10.416,1.927l-3.577-8.478a35.614,35.614,0,0,1,15.651-3.234c6.246,0,10.763,1.655,13.624,4.516m-6.474,20.022a17.75,17.75,0,0,0-7.3-1.5c-4.893,0-7.9,1.956-7.9,5.569v.149c0,3.088,2.558,4.893,6.246,4.893,5.345,0,8.959-2.935,8.959-7.075Zm61.987-3.989v.149c0,13.476-8.807,20.852-18.367,20.852a15.5,15.5,0,0,1-12.57-6.021v17.871H212.379V452.341h8.974l2.468,5.793c2.784-3.761,6.623-6.548,12.57-6.548,9.409,0,18.367,7.378,18.367,20.852m-11.443,0c0-6.7-4.516-11.141-9.859-11.141s-9.786,4.441-9.786,11.141v.149c0,6.7,4.441,11.143,9.786,11.143s9.859-4.368,9.859-11.143Zm105.806-20.852c-5.8,0-9.183,3.088-11.819,6.474l-2.433-5.719h-9.006v40.346H337.3V470.179c0-5.42,2.786-8.2,7.152-8.2s6.926,2.784,6.926,8.2v22.507h11.441V466.567c0-9.259-5.043-14.982-13.7-14.982M312.727,456.4c3.012,3.012,4.366,7.453,4.366,12.873v23.41h-9.219l-1.847-4.366c-2.784,3.088-6.623,5.119-12.194,5.119-7.6,0-13.85-4.366-13.85-12.346v-.149c0-8.807,6.7-12.873,16.258-12.873a28.65,28.65,0,0,1,9.861,1.655v-.676c0-4.742-2.935-7.378-8.656-7.378A28.886,28.886,0,0,0,287.03,463.6l-3.577-8.478a35.608,35.608,0,0,1,15.651-3.234c6.246,0,10.763,1.655,13.624,4.516m-6.474,20.022a17.756,17.756,0,0,0-7.3-1.5c-4.893,0-7.9,1.956-7.9,5.569v.149c0,3.088,2.56,4.893,6.25,4.893,5.343,0,8.957-2.935,8.957-7.075Zm-44.6,16.26H273.09V439.738H261.649Z" transform="translate(-53.437 -439.738)" fill="#fff"/>
</svg>
