<?xml version="1.0" encoding="utf-8"?>
<!-- Generator: Adobe Illustrator 25.1.0, SVG Export Plug-In . SVG Version: 6.00 Build 0)  -->
<svg version="1.1" id="Layer_1" xmlns="http://www.w3.org/2000/svg" xmlns:xlink="http://www.w3.org/1999/xlink" x="0px" y="0px"
	 viewBox="0 0 104.9 35.4" style="enable-background:new 0 0 104.9 35.4;" xml:space="preserve">
<style type="text/css">
	.st0{enable-background:new    ;}
	.st1{fill:#FFFFFF;}
</style>
<g class="st0">
	<path class="st1" d="M6,28.3h8.5v3.2h-12V3.6H6V28.3z"/>
	<path class="st1" d="M44,17.5c0,8.3-6.6,14.5-14.6,14.5c-8.1,0-14.6-6.3-14.6-14.5c0-8,6.6-14.5,14.6-14.5S44,9.5,44,17.5z
		 M40.5,17.5c0-6.1-4.6-11.3-11.1-11.3s-11.1,5.1-11.1,11.3c0,6.4,5.1,11.3,11.1,11.3S40.5,23.9,40.5,17.5z"/>
	<path class="st1" d="M72.8,17.4v1.1c0,7.7-5.4,13.5-13.2,13.5c-7.8,0-14.1-6.7-14.1-14.5C45.5,9.6,51.9,3,60,3
		c4.3,0,8.6,2,11.4,5.4l-2.4,2.3c-2-2.7-5.4-4.6-8.8-4.6C53.9,6.2,49,11.3,49,17.5c0,5.8,4.8,11.4,10.8,11.4c4.3,0,9-3.7,9.1-8.3
		h-7.2v-3.2H72.8z"/>
	<path class="st1" d="M103.5,17.5c0,8.3-6.6,14.5-14.6,14.5s-14.6-6.3-14.6-14.5c0-8,6.6-14.5,14.6-14.5S103.5,9.5,103.5,17.5z
		 M100.1,17.5c0-6.1-4.6-11.3-11.1-11.3s-11.1,5.1-11.1,11.3c0,6.4,5.1,11.3,11.1,11.3S100.1,23.9,100.1,17.5z"/>
</g>
</svg>
